<svg width="156" height="52" viewBox="0 0 156 52" fill="none" xmlns="http://www.w3.org/2000/svg">
<path fill-rule="evenodd" clip-rule="evenodd" d="M24.1275 18.2439L24.1091 18.2893L24.1056 18.2977L24.0866 18.3418C23.7196 19.1683 22.8956 19.7443 21.9395 19.7443C21.8792 19.7443 21.8207 19.7418 21.7614 19.7375H21.7593C20.9086 19.7325 17.8205 19.7308 17.7145 19.7306C13.8416 19.7308 10.6975 22.8961 10.6975 26.796C10.6975 30.6976 13.8412 33.862 17.7145 33.8618C17.8355 33.862 21.8528 33.8603 21.9704 33.853L21.9708 33.8566C22.1626 33.8591 22.3493 33.8847 22.5274 33.9309L22.531 33.9317L22.5518 33.9372L22.5631 33.9403L22.6044 33.9521L22.6073 33.9529L22.6423 33.9636L22.6619 33.9699C22.7151 33.9872 22.7675 34.0063 22.819 34.027L22.8282 34.0308C23.6876 34.3828 24.2937 35.2323 24.2937 36.2243C24.2937 37.5312 23.2411 38.591 21.943 38.591H21.9395H21.9393L21.9301 38.5905H21.9283H21.9257H21.9233H21.9208L21.9189 38.5904H21.9163H21.9139H21.9114H21.9093H21.9068H21.9043H21.9018H21.9016L21.8762 38.5895H21.8737H21.8714H21.8689H21.8663L21.863 38.5893L21.857 38.5889H21.8544L21.7981 38.586H21.7961H21.7936H21.7886C20.9844 38.5889 17.822 38.591 17.7145 38.5908C11.249 38.591 5.99959 33.3073 6 26.7961C6.00017 20.2865 11.249 15.0015 17.7145 15.0017C17.8216 15.0015 20.9802 15.0045 21.7869 15.0074C21.8386 15.0038 21.8905 15.0017 21.9431 15.0017C23.2411 15.0017 24.2938 16.0615 24.2938 17.3684C24.2938 17.6779 24.235 17.9729 24.1275 18.244L24.1275 18.2439Z" fill="white"/>
<path fill-rule="evenodd" clip-rule="evenodd" d="M28.9363 15L28.9882 15.0007L28.9956 15.0008L28.9975 15.0011C30.196 15.0365 31.1667 15.9879 31.2416 17.1844C31.2508 17.2381 31.2559 16.9743 31.2559 17.334C31.2559 17.6936 31.2535 17.4522 31.2492 17.5108V17.5129L31.2489 17.5133C31.2447 18.3572 31.3059 26.8543 31.3059 26.9594C31.3059 30.8046 34.4051 33.9257 38.2255 33.9257C42.0459 33.9257 45.1457 30.8046 45.1457 26.9594C45.1457 26.8391 45.0811 17.4198 45.0741 17.3029H45.078C45.0935 16.1084 45.996 15.1297 47.1593 15.0119L47.1595 15.0116L47.2177 15.0065H47.2179L47.2767 15.0027H47.277L47.3359 15.0007H47.3364L47.3958 15H47.3964C48.6764 15 49.7144 16.045 49.7144 17.3337V17.3339L49.714 17.3642C49.714 17.9261 49.7117 17.5288 49.7092 17.4841V17.482V17.4809V17.4805V17.4814V17.4836C49.7123 18.282 49.7775 26.853 49.7775 26.9594C49.7775 33.3784 44.6018 38.5894 38.2256 38.5894C31.8493 38.5894 26.674 33.3785 26.674 26.9594C26.674 26.8488 26.614 18.857 26.6168 17.495C26.6131 17.4416 26.6109 17.9965 26.6109 17.3337C26.6109 16.6709 27.6213 15.0284 28.8772 15.0006L28.9288 15H28.9364L28.9363 15Z" fill="white"/>
<path fill-rule="evenodd" clip-rule="evenodd" d="M54.3573 38.5894L54.4089 38.5888L54.4162 38.5886L54.4181 38.5884C55.6119 38.5531 56.5788 37.6053 56.6533 36.4136C56.6626 36.3602 56.6677 36.3099 56.6677 36.2647C56.6677 35.5934 56.6652 36.1469 56.6609 36.0886V36.0865L56.6607 36.0861C56.6564 35.2455 56.6546 26.6891 56.6546 26.5843C56.6546 22.7543 59.7424 19.6453 63.547 19.6453C67.3533 19.6453 70.4401 22.7543 70.4401 26.5843C70.4401 26.7042 70.4387 36.1791 70.4317 36.2957H70.4356C70.452 37.5649 71.4744 38.5895 72.7442 38.5895L72.7581 38.5892H72.7606L72.775 38.5895H72.7825L72.8342 38.5888L72.8415 38.5886L72.8434 38.5885C74.0374 38.5534 75.004 37.6055 75.0786 36.4137C75.0879 36.3602 75.093 36.3099 75.093 36.2647C75.093 35.5934 75.0905 36.147 75.0862 36.0886V36.0865L75.086 36.0862C75.0817 35.2455 75.0799 26.6891 75.0799 26.5844C75.0799 22.7543 78.1677 19.6454 81.9723 19.6454C85.7785 19.6454 88.8654 22.7543 88.8654 26.5844C88.8654 26.7042 88.8639 36.1791 88.857 36.2957H88.8609C88.8764 37.4857 89.7753 38.4606 90.9339 38.5777L90.9341 38.578L90.992 38.5831H90.9923L91.0509 38.5868H91.051L91.1098 38.5889H91.1103L91.1695 38.5895H91.1701C92.445 38.5895 93.4789 37.5486 93.4789 36.265V36.2647L93.4785 36.2346C93.4785 35.6749 93.4764 36.0706 93.4738 36.1152V36.1173V36.1183V36.1187V36.1179V36.1156C93.4768 35.3203 93.4789 26.6904 93.4789 26.5844C93.4789 20.1905 88.3242 15 81.9723 15C78.2055 15 74.859 16.8267 72.7595 19.6468C70.6603 16.8267 67.3145 15 63.547 15C57.1963 15 52.0408 20.1905 52.0408 26.5844C52.0408 26.6945 52.0439 34.7476 52.0467 36.1043C52.043 36.1575 52.0408 36.2107 52.0408 36.265C52.0408 37.5313 53.0472 38.5612 54.2982 38.5889L54.3496 38.5895H54.3572L54.3573 38.5894Z" fill="white"/>
<path fill-rule="evenodd" clip-rule="evenodd" d="M100.414 27.4155V27.4128V27.4112V27.41C100.41 27.3493 100.407 27.2887 100.406 27.2277L100.403 26.8382V26.8376V26.8279V26.8248V26.8174V26.812V26.8065V26.7995L100.406 26.3464C100.408 26.3007 100.409 26.2552 100.412 26.2098C100.413 26.2779 100.414 26.3298 100.414 26.1677C100.629 22.5315 103.629 19.6453 107.294 19.6453C111.101 19.6453 114.188 22.7543 114.188 26.5843C114.188 26.7042 114.186 35.9137 114.179 36.0302H114.183C114.199 37.2202 115.097 38.1947 116.256 38.3118L116.256 38.3121L116.314 38.3168L116.314 38.317L116.373 38.321H116.373L116.432 38.3231H116.432L116.492 38.324H116.492C117.767 38.324 118.801 37.2832 118.801 35.9995V35.9993L118.801 35.9688C118.801 35.409 118.799 35.8042 118.796 35.8487V35.8508V35.8522V35.8527V35.8519V35.8502V35.85C118.799 35.0537 118.801 26.6904 118.801 26.5844C118.801 20.1905 113.646 15 107.294 15C101.313 15 96.3925 19.6048 95.8406 25.4824C95.8134 25.6204 95.7976 25.7625 95.7957 25.9083H95.7943C95.7929 25.9613 95.7919 26.169 95.7908 26.3903C95.7898 26.455 95.7882 26.5193 95.7882 26.5843L95.7888 26.7999V26.8048L95.7882 27.0051C95.7882 27.055 95.7896 27.1047 95.7902 27.1546C95.7915 27.4318 95.7927 27.7156 95.7943 27.7758H95.7958C95.798 27.9517 95.8201 28.1238 95.8591 28.2881C96.4939 34.0794 101.374 38.5894 107.294 38.5894V38.5893L107.311 38.5894C108.586 38.5894 109.619 37.5486 109.619 36.265C109.619 34.9813 108.586 33.9404 107.311 33.9404C107.273 33.9404 107.235 33.941 107.198 33.9429C103.574 33.8929 100.623 31.0231 100.414 27.4155V27.4155Z" fill="white"/>
<path fill-rule="evenodd" clip-rule="evenodd" d="M123.449 38.5895L123.5 38.5889L123.508 38.5886L123.509 38.5885C124.703 38.5532 125.67 37.6053 125.745 36.4137C125.754 36.3602 125.759 36.3099 125.759 36.2647C125.759 35.5934 125.757 36.147 125.752 36.0886V36.0866L125.752 36.0862C125.748 35.2455 125.746 26.6892 125.746 26.5844C125.746 22.7543 128.834 19.6454 132.638 19.6454C136.445 19.6454 139.531 22.7543 139.531 26.5844C139.531 26.7042 139.53 36.1792 139.523 36.2957H139.527C139.543 37.4857 140.441 38.4606 141.6 38.5778L141.6 38.5779L141.658 38.5831H141.658L141.717 38.5868H141.717L141.776 38.5889H141.776L141.836 38.5895H141.836C143.111 38.5895 144.145 37.5486 144.145 36.2649V36.2647L144.145 36.2346C144.145 35.6749 144.142 36.0706 144.14 36.1152V36.1173V36.1183V36.1187V36.1179V36.1156C144.143 35.3203 144.145 26.6904 144.145 26.5844C144.145 20.1905 138.99 15 132.638 15C126.288 15 121.132 20.1905 121.132 26.5844C121.132 26.6945 121.135 34.7476 121.138 36.1043C121.134 36.1575 121.132 36.2107 121.132 36.2649C121.132 37.5313 122.139 38.5612 123.39 38.5889L123.441 38.5895H123.449H123.449Z" fill="white"/>
</svg>
